# xmcd
#
# Track frame offsets:
#	150
#	16380
#	33917
#	53712
#	72491
#	89804
#	106892
#	123321
#	143943
#	160505
#	176411
#	194675
#	213646
#	232482
#	250007
#	268993
#	286042
#
# Disc length: 4046
#
# Revision: 1
# Processed by: cddbd v1.5.1PL0 Copyright (c) Steve Scherf et al.
# Submitted via: FreeRIP 2.40 
# Normalized: r0:TDELIM( - )
#
DISCID=010fcc11
DTITLE=Top Hits USA - RA79 - August 2003
DYEAR=1900
DGENRE=Pop
TTITLE0=Clay Aiken - This Is The Night
TTITLE1=Natalie Grant - No Sign Of It (Humberto Gratica Radio Mix)
TTITLE2=Luther Vandross - Dance With My Father
TTITLE3=Mercy Me - I Can Only Imagine
TTITLE4=Matchbox Twenty - Unwell
TTITLE5=Ruben Studdard - Flying Without Wings
TTITLE6=Laura Pausini - If That's Love
TTITLE7=Michael Buble' - Kissing A Fool
TTITLE8=Michael McDonald - I Heard It Through The Grape Vine
TTITLE9=Earth Wind and Fire - All In The Way
TTITLE10=Clay Aiken - Bridge Over Troubled Water
TTITLE11=Mariah Carey - Bringin' On The Heartbreak (Mainstream AC Version)
TTITLE12=Frankie J. - Don't Wanna Try
TTITLE13=Michelle Branch - Are You Happy Now
TTITLE14=Jason Mraz - The Remedy (I Won't Worry)
TTITLE15=Josh Kelley - Amazing
TTITLE16=Styx - Yes I Can
EXTD=
EXTT0=
EXTT1=
EXTT2=
EXTT3=
EXTT4=
EXTT5=
EXTT6=
EXTT7=
EXTT8=
EXTT9=
EXTT10=
EXTT11=
EXTT12=
EXTT13=
EXTT14=
EXTT15=
EXTT16=
PLAYORDER=
